<mxfile host="Electron" modified="2023-05-31T06:52:04.451Z" agent="Mozilla/5.0 (Windows NT 10.0; Win64; x64) AppleWebKit/537.36 (KHTML, like Gecko) draw.io/21.2.8 Chrome/112.0.5615.165 Electron/24.2.0 Safari/537.36" etag="JulOAHfg2WL_tUcCzGM0" version="21.2.8" type="device">
  <diagram name="Trang-1" id="xY0PEO4LsHhzHaSgqRAf">
    <mxGraphModel dx="1520" dy="982" grid="0" gridSize="10" guides="1" tooltips="1" connect="1" arrows="1" fold="1" page="0" pageScale="1" pageWidth="1100" pageHeight="850" math="0" shadow="1">
      <root>
        <mxCell id="0" />
        <mxCell id="1" parent="0" />
        <mxCell id="1-xLJj_W97G6Exex_2RE-9" style="edgeStyle=none;curved=1;rounded=0;orthogonalLoop=1;jettySize=auto;html=1;exitX=0;exitY=1;exitDx=0;exitDy=0;fontSize=12;startSize=8;endSize=8;" edge="1" parent="1" source="1-xLJj_W97G6Exex_2RE-1" target="1-xLJj_W97G6Exex_2RE-3">
          <mxGeometry relative="1" as="geometry" />
        </mxCell>
        <mxCell id="1-xLJj_W97G6Exex_2RE-10" style="edgeStyle=none;curved=1;rounded=0;orthogonalLoop=1;jettySize=auto;html=1;exitX=1;exitY=1;exitDx=0;exitDy=0;fontSize=12;startSize=8;endSize=8;" edge="1" parent="1" source="1-xLJj_W97G6Exex_2RE-1" target="1-xLJj_W97G6Exex_2RE-2">
          <mxGeometry relative="1" as="geometry" />
        </mxCell>
        <mxCell id="1-xLJj_W97G6Exex_2RE-1" value="3" style="ellipse;whiteSpace=wrap;html=1;aspect=fixed;fontSize=16;" vertex="1" parent="1">
          <mxGeometry x="-54" y="-179" width="37" height="37" as="geometry" />
        </mxCell>
        <mxCell id="1-xLJj_W97G6Exex_2RE-13" style="edgeStyle=none;curved=1;rounded=0;orthogonalLoop=1;jettySize=auto;html=1;exitX=1;exitY=1;exitDx=0;exitDy=0;entryX=0;entryY=0;entryDx=0;entryDy=0;fontSize=12;startSize=8;endSize=8;" edge="1" parent="1" source="1-xLJj_W97G6Exex_2RE-2" target="1-xLJj_W97G6Exex_2RE-6">
          <mxGeometry relative="1" as="geometry" />
        </mxCell>
        <mxCell id="1-xLJj_W97G6Exex_2RE-16" style="edgeStyle=none;curved=1;rounded=0;orthogonalLoop=1;jettySize=auto;html=1;exitX=0;exitY=1;exitDx=0;exitDy=0;entryX=0.629;entryY=0.035;entryDx=0;entryDy=0;entryPerimeter=0;fontSize=12;startSize=8;endSize=8;" edge="1" parent="1" source="1-xLJj_W97G6Exex_2RE-2" target="1-xLJj_W97G6Exex_2RE-31">
          <mxGeometry relative="1" as="geometry">
            <mxPoint x="9.977999999999952" y="-23.992999999999995" as="targetPoint" />
          </mxGeometry>
        </mxCell>
        <mxCell id="1-xLJj_W97G6Exex_2RE-2" value="4" style="ellipse;whiteSpace=wrap;html=1;aspect=fixed;fontSize=16;" vertex="1" parent="1">
          <mxGeometry x="27" y="-100" width="37" height="37" as="geometry" />
        </mxCell>
        <mxCell id="1-xLJj_W97G6Exex_2RE-11" style="edgeStyle=none;curved=1;rounded=0;orthogonalLoop=1;jettySize=auto;html=1;exitX=0;exitY=1;exitDx=0;exitDy=0;fontSize=12;startSize=8;endSize=8;" edge="1" parent="1" source="1-xLJj_W97G6Exex_2RE-3" target="1-xLJj_W97G6Exex_2RE-5">
          <mxGeometry relative="1" as="geometry" />
        </mxCell>
        <mxCell id="1-xLJj_W97G6Exex_2RE-3" value="2" style="ellipse;whiteSpace=wrap;html=1;aspect=fixed;fontSize=16;" vertex="1" parent="1">
          <mxGeometry x="-124" y="-105" width="37" height="37" as="geometry" />
        </mxCell>
        <mxCell id="1-xLJj_W97G6Exex_2RE-5" value="5" style="ellipse;whiteSpace=wrap;html=1;aspect=fixed;fontSize=16;" vertex="1" parent="1">
          <mxGeometry x="-194" y="-33" width="37" height="37" as="geometry" />
        </mxCell>
        <mxCell id="1-xLJj_W97G6Exex_2RE-6" value="1" style="ellipse;whiteSpace=wrap;html=1;aspect=fixed;fontSize=16;" vertex="1" parent="1">
          <mxGeometry x="93" y="-24" width="37" height="37" as="geometry" />
        </mxCell>
        <mxCell id="1-xLJj_W97G6Exex_2RE-7" style="edgeStyle=none;curved=1;rounded=0;orthogonalLoop=1;jettySize=auto;html=1;exitX=1;exitY=0.5;exitDx=0;exitDy=0;fontSize=12;startSize=8;endSize=8;" edge="1" parent="1" source="1-xLJj_W97G6Exex_2RE-3" target="1-xLJj_W97G6Exex_2RE-3">
          <mxGeometry relative="1" as="geometry" />
        </mxCell>
        <mxCell id="1-xLJj_W97G6Exex_2RE-31" value="7" style="ellipse;whiteSpace=wrap;html=1;aspect=fixed;fontSize=16;" vertex="1" parent="1">
          <mxGeometry x="-19" y="-22" width="37" height="37" as="geometry" />
        </mxCell>
        <mxCell id="1-xLJj_W97G6Exex_2RE-43" style="edgeStyle=none;curved=1;rounded=0;orthogonalLoop=1;jettySize=auto;html=1;fontSize=12;startSize=8;endSize=8;" edge="1" parent="1" source="1-xLJj_W97G6Exex_2RE-42" target="1-xLJj_W97G6Exex_2RE-44">
          <mxGeometry relative="1" as="geometry">
            <mxPoint x="381" y="-66" as="targetPoint" />
          </mxGeometry>
        </mxCell>
        <mxCell id="1-xLJj_W97G6Exex_2RE-45" style="edgeStyle=none;curved=1;rounded=0;orthogonalLoop=1;jettySize=auto;html=1;fontSize=12;startSize=8;endSize=8;entryX=0.444;entryY=-0.129;entryDx=0;entryDy=0;entryPerimeter=0;" edge="1" parent="1" source="1-xLJj_W97G6Exex_2RE-42" target="1-xLJj_W97G6Exex_2RE-46">
          <mxGeometry relative="1" as="geometry">
            <mxPoint x="392" y="248" as="targetPoint" />
          </mxGeometry>
        </mxCell>
        <mxCell id="1-xLJj_W97G6Exex_2RE-143" style="edgeStyle=none;curved=1;rounded=0;orthogonalLoop=1;jettySize=auto;html=1;entryX=0.041;entryY=0.548;entryDx=0;entryDy=0;entryPerimeter=0;fontSize=12;startSize=8;endSize=8;" edge="1" parent="1" source="1-xLJj_W97G6Exex_2RE-42" target="1-xLJj_W97G6Exex_2RE-133">
          <mxGeometry relative="1" as="geometry" />
        </mxCell>
        <mxCell id="1-xLJj_W97G6Exex_2RE-42" value="3" style="text;html=1;align=center;verticalAlign=middle;resizable=0;points=[];autosize=1;strokeColor=none;fillColor=none;fontSize=16;" vertex="1" parent="1">
          <mxGeometry x="274" y="-81" width="27" height="31" as="geometry" />
        </mxCell>
        <mxCell id="1-xLJj_W97G6Exex_2RE-48" style="edgeStyle=none;curved=1;rounded=0;orthogonalLoop=1;jettySize=auto;html=1;fontSize=12;startSize=8;endSize=8;" edge="1" parent="1" source="1-xLJj_W97G6Exex_2RE-44" target="1-xLJj_W97G6Exex_2RE-47">
          <mxGeometry relative="1" as="geometry" />
        </mxCell>
        <mxCell id="1-xLJj_W97G6Exex_2RE-49" style="edgeStyle=none;curved=1;rounded=0;orthogonalLoop=1;jettySize=auto;html=1;fontSize=12;startSize=8;endSize=8;entryX=0.047;entryY=0.516;entryDx=0;entryDy=0;entryPerimeter=0;" edge="1" parent="1" source="1-xLJj_W97G6Exex_2RE-44" target="1-xLJj_W97G6Exex_2RE-50">
          <mxGeometry relative="1" as="geometry">
            <mxPoint x="498" y="-24" as="targetPoint" />
          </mxGeometry>
        </mxCell>
        <mxCell id="1-xLJj_W97G6Exex_2RE-142" style="edgeStyle=none;curved=1;rounded=0;orthogonalLoop=1;jettySize=auto;html=1;entryX=-0.02;entryY=0.548;entryDx=0;entryDy=0;entryPerimeter=0;fontSize=12;startSize=8;endSize=8;" edge="1" parent="1" source="1-xLJj_W97G6Exex_2RE-44" target="1-xLJj_W97G6Exex_2RE-134">
          <mxGeometry relative="1" as="geometry" />
        </mxCell>
        <mxCell id="1-xLJj_W97G6Exex_2RE-44" value="2" style="text;html=1;align=center;verticalAlign=middle;resizable=0;points=[];autosize=1;strokeColor=none;fillColor=none;fontSize=16;" vertex="1" parent="1">
          <mxGeometry x="415" y="-81" width="27" height="31" as="geometry" />
        </mxCell>
        <mxCell id="1-xLJj_W97G6Exex_2RE-55" style="edgeStyle=none;curved=1;rounded=0;orthogonalLoop=1;jettySize=auto;html=1;entryX=-0.111;entryY=0.484;entryDx=0;entryDy=0;entryPerimeter=0;fontSize=12;startSize=8;endSize=8;" edge="1" parent="1" source="1-xLJj_W97G6Exex_2RE-46" target="1-xLJj_W97G6Exex_2RE-53">
          <mxGeometry relative="1" as="geometry" />
        </mxCell>
        <mxCell id="1-xLJj_W97G6Exex_2RE-56" style="edgeStyle=none;curved=1;rounded=0;orthogonalLoop=1;jettySize=auto;html=1;entryX=-0.222;entryY=0.581;entryDx=0;entryDy=0;entryPerimeter=0;fontSize=12;startSize=8;endSize=8;" edge="1" parent="1" source="1-xLJj_W97G6Exex_2RE-46" target="1-xLJj_W97G6Exex_2RE-54">
          <mxGeometry relative="1" as="geometry" />
        </mxCell>
        <mxCell id="1-xLJj_W97G6Exex_2RE-144" style="edgeStyle=none;curved=1;rounded=0;orthogonalLoop=1;jettySize=auto;html=1;entryX=-0.061;entryY=0.548;entryDx=0;entryDy=0;entryPerimeter=0;fontSize=12;startSize=8;endSize=8;" edge="1" parent="1" source="1-xLJj_W97G6Exex_2RE-46" target="1-xLJj_W97G6Exex_2RE-138">
          <mxGeometry relative="1" as="geometry" />
        </mxCell>
        <mxCell id="1-xLJj_W97G6Exex_2RE-46" value="4" style="text;html=1;align=center;verticalAlign=middle;resizable=0;points=[];autosize=1;strokeColor=none;fillColor=none;fontSize=16;" vertex="1" parent="1">
          <mxGeometry x="404" y="59" width="27" height="31" as="geometry" />
        </mxCell>
        <mxCell id="1-xLJj_W97G6Exex_2RE-62" style="edgeStyle=none;curved=1;rounded=0;orthogonalLoop=1;jettySize=auto;html=1;entryX=-0.043;entryY=0.484;entryDx=0;entryDy=0;entryPerimeter=0;fontSize=12;startSize=8;endSize=8;" edge="1" parent="1" source="1-xLJj_W97G6Exex_2RE-47" target="1-xLJj_W97G6Exex_2RE-58">
          <mxGeometry relative="1" as="geometry" />
        </mxCell>
        <mxCell id="1-xLJj_W97G6Exex_2RE-120" style="edgeStyle=none;curved=1;rounded=0;orthogonalLoop=1;jettySize=auto;html=1;entryX=0.049;entryY=0.718;entryDx=0;entryDy=0;entryPerimeter=0;fontSize=12;startSize=8;endSize=8;" edge="1" parent="1" source="1-xLJj_W97G6Exex_2RE-47" target="1-xLJj_W97G6Exex_2RE-119">
          <mxGeometry relative="1" as="geometry" />
        </mxCell>
        <mxCell id="1-xLJj_W97G6Exex_2RE-140" style="edgeStyle=none;curved=1;rounded=0;orthogonalLoop=1;jettySize=auto;html=1;entryX=0.041;entryY=0.581;entryDx=0;entryDy=0;entryPerimeter=0;fontSize=12;startSize=8;endSize=8;" edge="1" parent="1" source="1-xLJj_W97G6Exex_2RE-47" target="1-xLJj_W97G6Exex_2RE-136">
          <mxGeometry relative="1" as="geometry" />
        </mxCell>
        <mxCell id="1-xLJj_W97G6Exex_2RE-47" value="5" style="text;html=1;align=center;verticalAlign=middle;resizable=0;points=[];autosize=1;strokeColor=none;fillColor=none;fontSize=16;" vertex="1" parent="1">
          <mxGeometry x="526" y="-81" width="27" height="31" as="geometry" />
        </mxCell>
        <mxCell id="1-xLJj_W97G6Exex_2RE-50" value="&lt;b&gt;null&lt;/b&gt;" style="text;html=1;align=center;verticalAlign=middle;resizable=0;points=[];autosize=1;strokeColor=none;fillColor=none;fontSize=16;fontColor=#ff0000;" vertex="1" parent="1">
          <mxGeometry x="514.5" y="-2" width="46" height="31" as="geometry" />
        </mxCell>
        <mxCell id="1-xLJj_W97G6Exex_2RE-52" value="3 2 5 4 7 1" style="text;html=1;align=center;verticalAlign=middle;resizable=0;points=[];autosize=1;strokeColor=none;fillColor=none;fontSize=16;" vertex="1" parent="1">
          <mxGeometry x="274" y="-131" width="94" height="31" as="geometry" />
        </mxCell>
        <mxCell id="1-xLJj_W97G6Exex_2RE-61" style="edgeStyle=none;curved=1;rounded=0;orthogonalLoop=1;jettySize=auto;html=1;fontSize=12;startSize=8;endSize=8;" edge="1" parent="1" source="1-xLJj_W97G6Exex_2RE-53" target="1-xLJj_W97G6Exex_2RE-59">
          <mxGeometry relative="1" as="geometry" />
        </mxCell>
        <mxCell id="1-xLJj_W97G6Exex_2RE-122" style="edgeStyle=none;curved=1;rounded=0;orthogonalLoop=1;jettySize=auto;html=1;entryX=0.046;entryY=0.543;entryDx=0;entryDy=0;entryPerimeter=0;fontSize=12;startSize=8;endSize=8;" edge="1" parent="1" source="1-xLJj_W97G6Exex_2RE-53" target="1-xLJj_W97G6Exex_2RE-121">
          <mxGeometry relative="1" as="geometry" />
        </mxCell>
        <mxCell id="1-xLJj_W97G6Exex_2RE-145" style="edgeStyle=none;curved=1;rounded=0;orthogonalLoop=1;jettySize=auto;html=1;entryX=-0.01;entryY=0.484;entryDx=0;entryDy=0;entryPerimeter=0;fontSize=12;startSize=8;endSize=8;" edge="1" parent="1" source="1-xLJj_W97G6Exex_2RE-53" target="1-xLJj_W97G6Exex_2RE-137">
          <mxGeometry relative="1" as="geometry" />
        </mxCell>
        <mxCell id="1-xLJj_W97G6Exex_2RE-53" value="7" style="text;html=1;align=center;verticalAlign=middle;resizable=0;points=[];autosize=1;strokeColor=none;fillColor=none;fontSize=16;" vertex="1" parent="1">
          <mxGeometry x="521" y="65" width="27" height="31" as="geometry" />
        </mxCell>
        <mxCell id="1-xLJj_W97G6Exex_2RE-60" style="edgeStyle=none;curved=1;rounded=0;orthogonalLoop=1;jettySize=auto;html=1;fontSize=12;startSize=8;endSize=8;" edge="1" parent="1" source="1-xLJj_W97G6Exex_2RE-54" target="1-xLJj_W97G6Exex_2RE-57">
          <mxGeometry relative="1" as="geometry" />
        </mxCell>
        <mxCell id="1-xLJj_W97G6Exex_2RE-146" style="edgeStyle=none;curved=1;rounded=0;orthogonalLoop=1;jettySize=auto;html=1;fontSize=12;startSize=8;endSize=8;" edge="1" parent="1" source="1-xLJj_W97G6Exex_2RE-54" target="1-xLJj_W97G6Exex_2RE-123">
          <mxGeometry relative="1" as="geometry" />
        </mxCell>
        <mxCell id="1-xLJj_W97G6Exex_2RE-147" style="edgeStyle=none;curved=1;rounded=0;orthogonalLoop=1;jettySize=auto;html=1;fontSize=12;startSize=8;endSize=8;" edge="1" parent="1" source="1-xLJj_W97G6Exex_2RE-54" target="1-xLJj_W97G6Exex_2RE-139">
          <mxGeometry relative="1" as="geometry" />
        </mxCell>
        <mxCell id="1-xLJj_W97G6Exex_2RE-54" value="1" style="text;html=1;align=center;verticalAlign=middle;resizable=0;points=[];autosize=1;strokeColor=none;fillColor=none;fontSize=16;" vertex="1" parent="1">
          <mxGeometry x="526" y="173" width="27" height="31" as="geometry" />
        </mxCell>
        <mxCell id="1-xLJj_W97G6Exex_2RE-57" value="&lt;b&gt;null&lt;/b&gt;" style="text;html=1;align=center;verticalAlign=middle;resizable=0;points=[];autosize=1;strokeColor=none;fillColor=none;fontSize=16;fontColor=#ff0000;" vertex="1" parent="1">
          <mxGeometry x="672.5" y="282" width="46" height="31" as="geometry" />
        </mxCell>
        <mxCell id="1-xLJj_W97G6Exex_2RE-58" value="&lt;b&gt;null&lt;/b&gt;" style="text;html=1;align=center;verticalAlign=middle;resizable=0;points=[];autosize=1;strokeColor=none;fillColor=none;fontSize=16;fontColor=#ff0000;" vertex="1" parent="1">
          <mxGeometry x="676" y="-80" width="46" height="31" as="geometry" />
        </mxCell>
        <mxCell id="1-xLJj_W97G6Exex_2RE-59" value="&lt;b&gt;null&lt;/b&gt;" style="text;html=1;align=center;verticalAlign=middle;resizable=0;points=[];autosize=1;strokeColor=none;fillColor=none;fontSize=16;fontColor=#ff0000;" vertex="1" parent="1">
          <mxGeometry x="672.5" y="150" width="46" height="31" as="geometry" />
        </mxCell>
        <mxCell id="1-xLJj_W97G6Exex_2RE-119" value="&lt;b&gt;null&lt;/b&gt;" style="text;html=1;align=center;verticalAlign=middle;resizable=0;points=[];autosize=1;strokeColor=none;fillColor=none;fontSize=16;fontColor=#ff0000;" vertex="1" parent="1">
          <mxGeometry x="672.5" y="-2" width="46" height="31" as="geometry" />
        </mxCell>
        <mxCell id="1-xLJj_W97G6Exex_2RE-121" value="&lt;b&gt;null&lt;/b&gt;" style="text;html=1;align=center;verticalAlign=middle;resizable=0;points=[];autosize=1;strokeColor=none;fillColor=none;fontSize=16;fontColor=#ff0000;" vertex="1" parent="1">
          <mxGeometry x="680" y="62" width="46" height="31" as="geometry" />
        </mxCell>
        <mxCell id="1-xLJj_W97G6Exex_2RE-123" value="&lt;b&gt;null&lt;/b&gt;" style="text;html=1;align=center;verticalAlign=middle;resizable=0;points=[];autosize=1;strokeColor=none;fillColor=none;fontSize=16;fontColor=#ff0000;" vertex="1" parent="1">
          <mxGeometry x="672.5" y="194" width="46" height="31" as="geometry" />
        </mxCell>
        <mxCell id="1-xLJj_W97G6Exex_2RE-133" value="print" style="text;html=1;align=center;verticalAlign=middle;resizable=0;points=[];autosize=1;strokeColor=none;fillColor=none;fontSize=16;" vertex="1" parent="1">
          <mxGeometry x="404" y="-27" width="49" height="31" as="geometry" />
        </mxCell>
        <mxCell id="1-xLJj_W97G6Exex_2RE-134" value="print" style="text;html=1;align=center;verticalAlign=middle;resizable=0;points=[];autosize=1;strokeColor=none;fillColor=none;fontSize=16;" vertex="1" parent="1">
          <mxGeometry x="517" y="-49" width="49" height="31" as="geometry" />
        </mxCell>
        <mxCell id="1-xLJj_W97G6Exex_2RE-136" value="print" style="text;html=1;align=center;verticalAlign=middle;resizable=0;points=[];autosize=1;strokeColor=none;fillColor=none;fontSize=16;" vertex="1" parent="1">
          <mxGeometry x="671" y="-41" width="49" height="31" as="geometry" />
        </mxCell>
        <mxCell id="1-xLJj_W97G6Exex_2RE-137" value="print" style="text;html=1;align=center;verticalAlign=middle;resizable=0;points=[];autosize=1;strokeColor=none;fillColor=none;fontSize=16;" vertex="1" parent="1">
          <mxGeometry x="676.5" y="106" width="49" height="31" as="geometry" />
        </mxCell>
        <mxCell id="1-xLJj_W97G6Exex_2RE-138" value="print" style="text;html=1;align=center;verticalAlign=middle;resizable=0;points=[];autosize=1;strokeColor=none;fillColor=none;fontSize=16;" vertex="1" parent="1">
          <mxGeometry x="517" y="117" width="49" height="31" as="geometry" />
        </mxCell>
        <mxCell id="1-xLJj_W97G6Exex_2RE-139" value="print" style="text;html=1;align=center;verticalAlign=middle;resizable=0;points=[];autosize=1;strokeColor=none;fillColor=none;fontSize=16;" vertex="1" parent="1">
          <mxGeometry x="671" y="238" width="49" height="31" as="geometry" />
        </mxCell>
        <mxCell id="1-xLJj_W97G6Exex_2RE-148" value="" style="shape=table;startSize=0;container=1;collapsible=0;childLayout=tableLayout;fontSize=16;" vertex="1" parent="1">
          <mxGeometry x="-108" y="-49" width="60" height="400" as="geometry" />
        </mxCell>
        <mxCell id="1-xLJj_W97G6Exex_2RE-149" value="" style="shape=tableRow;horizontal=0;startSize=0;swimlaneHead=0;swimlaneBody=0;strokeColor=inherit;top=0;left=0;bottom=0;right=0;collapsible=0;dropTarget=0;fillColor=none;points=[[0,0.5],[1,0.5]];portConstraint=eastwest;fontSize=16;" vertex="1" parent="1-xLJj_W97G6Exex_2RE-148">
          <mxGeometry width="60" height="40" as="geometry" />
        </mxCell>
        <mxCell id="1-xLJj_W97G6Exex_2RE-150" value="" style="shape=partialRectangle;html=1;whiteSpace=wrap;connectable=0;strokeColor=inherit;overflow=hidden;fillColor=none;top=0;left=0;bottom=0;right=0;pointerEvents=1;fontSize=16;" vertex="1" parent="1-xLJj_W97G6Exex_2RE-149">
          <mxGeometry width="60" height="40" as="geometry">
            <mxRectangle width="60" height="40" as="alternateBounds" />
          </mxGeometry>
        </mxCell>
        <mxCell id="1-xLJj_W97G6Exex_2RE-151" value="" style="shape=tableRow;horizontal=0;startSize=0;swimlaneHead=0;swimlaneBody=0;strokeColor=inherit;top=0;left=0;bottom=0;right=0;collapsible=0;dropTarget=0;fillColor=none;points=[[0,0.5],[1,0.5]];portConstraint=eastwest;fontSize=16;" vertex="1" parent="1-xLJj_W97G6Exex_2RE-148">
          <mxGeometry y="40" width="60" height="40" as="geometry" />
        </mxCell>
        <mxCell id="1-xLJj_W97G6Exex_2RE-152" value="" style="shape=partialRectangle;html=1;whiteSpace=wrap;connectable=0;strokeColor=inherit;overflow=hidden;fillColor=none;top=0;left=0;bottom=0;right=0;pointerEvents=1;fontSize=16;" vertex="1" parent="1-xLJj_W97G6Exex_2RE-151">
          <mxGeometry width="60" height="40" as="geometry">
            <mxRectangle width="60" height="40" as="alternateBounds" />
          </mxGeometry>
        </mxCell>
        <mxCell id="1-xLJj_W97G6Exex_2RE-153" value="" style="shape=tableRow;horizontal=0;startSize=0;swimlaneHead=0;swimlaneBody=0;strokeColor=inherit;top=0;left=0;bottom=0;right=0;collapsible=0;dropTarget=0;fillColor=none;points=[[0,0.5],[1,0.5]];portConstraint=eastwest;fontSize=16;" vertex="1" parent="1-xLJj_W97G6Exex_2RE-148">
          <mxGeometry y="80" width="60" height="40" as="geometry" />
        </mxCell>
        <mxCell id="1-xLJj_W97G6Exex_2RE-154" value="" style="shape=partialRectangle;html=1;whiteSpace=wrap;connectable=0;strokeColor=inherit;overflow=hidden;fillColor=none;top=0;left=0;bottom=0;right=0;pointerEvents=1;fontSize=16;" vertex="1" parent="1-xLJj_W97G6Exex_2RE-153">
          <mxGeometry width="60" height="40" as="geometry">
            <mxRectangle width="60" height="40" as="alternateBounds" />
          </mxGeometry>
        </mxCell>
        <mxCell id="1-xLJj_W97G6Exex_2RE-155" value="" style="shape=tableRow;horizontal=0;startSize=0;swimlaneHead=0;swimlaneBody=0;strokeColor=inherit;top=0;left=0;bottom=0;right=0;collapsible=0;dropTarget=0;fillColor=none;points=[[0,0.5],[1,0.5]];portConstraint=eastwest;fontSize=16;" vertex="1" parent="1-xLJj_W97G6Exex_2RE-148">
          <mxGeometry y="120" width="60" height="40" as="geometry" />
        </mxCell>
        <mxCell id="1-xLJj_W97G6Exex_2RE-156" value="" style="shape=partialRectangle;html=1;whiteSpace=wrap;connectable=0;strokeColor=inherit;overflow=hidden;fillColor=none;top=0;left=0;bottom=0;right=0;pointerEvents=1;fontSize=16;" vertex="1" parent="1-xLJj_W97G6Exex_2RE-155">
          <mxGeometry width="60" height="40" as="geometry">
            <mxRectangle width="60" height="40" as="alternateBounds" />
          </mxGeometry>
        </mxCell>
        <mxCell id="1-xLJj_W97G6Exex_2RE-157" value="" style="shape=tableRow;horizontal=0;startSize=0;swimlaneHead=0;swimlaneBody=0;strokeColor=inherit;top=0;left=0;bottom=0;right=0;collapsible=0;dropTarget=0;fillColor=none;points=[[0,0.5],[1,0.5]];portConstraint=eastwest;fontSize=16;" vertex="1" parent="1-xLJj_W97G6Exex_2RE-148">
          <mxGeometry y="160" width="60" height="40" as="geometry" />
        </mxCell>
        <mxCell id="1-xLJj_W97G6Exex_2RE-158" value="" style="shape=partialRectangle;html=1;whiteSpace=wrap;connectable=0;strokeColor=inherit;overflow=hidden;fillColor=none;top=0;left=0;bottom=0;right=0;pointerEvents=1;fontSize=16;" vertex="1" parent="1-xLJj_W97G6Exex_2RE-157">
          <mxGeometry width="60" height="40" as="geometry">
            <mxRectangle width="60" height="40" as="alternateBounds" />
          </mxGeometry>
        </mxCell>
        <mxCell id="1-xLJj_W97G6Exex_2RE-159" value="" style="shape=tableRow;horizontal=0;startSize=0;swimlaneHead=0;swimlaneBody=0;strokeColor=inherit;top=0;left=0;bottom=0;right=0;collapsible=0;dropTarget=0;fillColor=none;points=[[0,0.5],[1,0.5]];portConstraint=eastwest;fontSize=16;" vertex="1" parent="1-xLJj_W97G6Exex_2RE-148">
          <mxGeometry y="200" width="60" height="40" as="geometry" />
        </mxCell>
        <mxCell id="1-xLJj_W97G6Exex_2RE-160" value="" style="shape=partialRectangle;html=1;whiteSpace=wrap;connectable=0;strokeColor=inherit;overflow=hidden;fillColor=none;top=0;left=0;bottom=0;right=0;pointerEvents=1;fontSize=16;" vertex="1" parent="1-xLJj_W97G6Exex_2RE-159">
          <mxGeometry width="60" height="40" as="geometry">
            <mxRectangle width="60" height="40" as="alternateBounds" />
          </mxGeometry>
        </mxCell>
        <mxCell id="1-xLJj_W97G6Exex_2RE-161" value="" style="shape=tableRow;horizontal=0;startSize=0;swimlaneHead=0;swimlaneBody=0;strokeColor=inherit;top=0;left=0;bottom=0;right=0;collapsible=0;dropTarget=0;fillColor=none;points=[[0,0.5],[1,0.5]];portConstraint=eastwest;fontSize=16;" vertex="1" parent="1-xLJj_W97G6Exex_2RE-148">
          <mxGeometry y="240" width="60" height="40" as="geometry" />
        </mxCell>
        <mxCell id="1-xLJj_W97G6Exex_2RE-162" value="" style="shape=partialRectangle;html=1;whiteSpace=wrap;connectable=0;strokeColor=inherit;overflow=hidden;fillColor=none;top=0;left=0;bottom=0;right=0;pointerEvents=1;fontSize=16;" vertex="1" parent="1-xLJj_W97G6Exex_2RE-161">
          <mxGeometry width="60" height="40" as="geometry">
            <mxRectangle width="60" height="40" as="alternateBounds" />
          </mxGeometry>
        </mxCell>
        <mxCell id="1-xLJj_W97G6Exex_2RE-163" value="" style="shape=tableRow;horizontal=0;startSize=0;swimlaneHead=0;swimlaneBody=0;strokeColor=inherit;top=0;left=0;bottom=0;right=0;collapsible=0;dropTarget=0;fillColor=none;points=[[0,0.5],[1,0.5]];portConstraint=eastwest;fontSize=16;" vertex="1" parent="1-xLJj_W97G6Exex_2RE-148">
          <mxGeometry y="280" width="60" height="40" as="geometry" />
        </mxCell>
        <mxCell id="1-xLJj_W97G6Exex_2RE-164" value="print" style="shape=partialRectangle;html=1;whiteSpace=wrap;connectable=0;strokeColor=inherit;overflow=hidden;fillColor=none;top=0;left=0;bottom=0;right=0;pointerEvents=1;fontSize=16;" vertex="1" parent="1-xLJj_W97G6Exex_2RE-163">
          <mxGeometry width="60" height="40" as="geometry">
            <mxRectangle width="60" height="40" as="alternateBounds" />
          </mxGeometry>
        </mxCell>
        <mxCell id="1-xLJj_W97G6Exex_2RE-165" value="" style="shape=tableRow;horizontal=0;startSize=0;swimlaneHead=0;swimlaneBody=0;strokeColor=inherit;top=0;left=0;bottom=0;right=0;collapsible=0;dropTarget=0;fillColor=none;points=[[0,0.5],[1,0.5]];portConstraint=eastwest;fontSize=16;" vertex="1" parent="1-xLJj_W97G6Exex_2RE-148">
          <mxGeometry y="320" width="60" height="40" as="geometry" />
        </mxCell>
        <mxCell id="1-xLJj_W97G6Exex_2RE-166" value="2" style="shape=partialRectangle;html=1;whiteSpace=wrap;connectable=0;strokeColor=inherit;overflow=hidden;fillColor=none;top=0;left=0;bottom=0;right=0;pointerEvents=1;fontSize=16;" vertex="1" parent="1-xLJj_W97G6Exex_2RE-165">
          <mxGeometry width="60" height="40" as="geometry">
            <mxRectangle width="60" height="40" as="alternateBounds" />
          </mxGeometry>
        </mxCell>
        <mxCell id="1-xLJj_W97G6Exex_2RE-167" value="" style="shape=tableRow;horizontal=0;startSize=0;swimlaneHead=0;swimlaneBody=0;strokeColor=inherit;top=0;left=0;bottom=0;right=0;collapsible=0;dropTarget=0;fillColor=none;points=[[0,0.5],[1,0.5]];portConstraint=eastwest;fontSize=16;" vertex="1" parent="1-xLJj_W97G6Exex_2RE-148">
          <mxGeometry y="360" width="60" height="40" as="geometry" />
        </mxCell>
        <mxCell id="1-xLJj_W97G6Exex_2RE-168" value="3" style="shape=partialRectangle;html=1;whiteSpace=wrap;connectable=0;strokeColor=inherit;overflow=hidden;fillColor=none;top=0;left=0;bottom=0;right=0;pointerEvents=1;fontSize=16;" vertex="1" parent="1-xLJj_W97G6Exex_2RE-167">
          <mxGeometry width="60" height="40" as="geometry">
            <mxRectangle width="60" height="40" as="alternateBounds" />
          </mxGeometry>
        </mxCell>
      </root>
    </mxGraphModel>
  </diagram>
</mxfile>
